# xmcd CD database file
#
# Track frame offsets:
#	150
#	9355
#	21550
#	30752
#	41637
#	58800
#	68572
#	80587
#	90637
#	112467
#	126512
#	129017
#	143150
#	153265
#	163685
#	176540
#	179505
#	191632
#	200775
#	213782
#	217087
#	226022
#	229467
#
# Disc length: 3728 seconds
#
# Revision: 1
# Processed by: cddbd v1.5.1PL0 Copyright (c) Steve Scherf et al.
# Submitted via: CDex 1.51
#
DISCID=480e8e17
DTITLE=Ryo Terakado_Lucia Swarts_Siebe Henstra - Corelli: Sonatas for Violin and Basso Continuo Op.5 Nos.7-12
DYEAR=2002
DGENRE=classic
TTITLE0=Sonata VII in D Minor - Preludi - Vivace
TTITLE1=Sonata VII in D Minor - Corrente - Allergro
TTITLE2=Sonata VII in D Minor - Sarabande - Largo
TTITLE3=Sonata VII in D Minor - Giga, Allegro
TTITLE4=Sonata VIII in E Minor -  Preludio - Largo
TTITLE5=Sonata VIII in E Minor - Allemanda -Allegro
TTITLE6=Sonata VIII in E Minor -  Sarabande - Largo
TTITLE7=Sonata VIII in E Minor - Giga - Allegro
TTITLE8=Sonata IX in A Major - Preludio - Largo
TTITLE9=Sonata IX in A Major - Giga - Allegro
TTITLE10=Sonata IX in A Major - Adagio
TTITLE11=Sonata IX in A Major - Tempo di Gavotta - Allegro
TTITLE12=Sonata X in F Major - Preludio - Adagio
TTITLE13=Sonata X in F Major - Allemanda - ALlegro
TTITLE14=Sonata X in F Major -  Sarabanda - Largo
TTITLE15=Sonata X in F Major - Gavotta - Allegro
TTITLE16=Sonata X in F Major -  Giga - Allegro
TTITLE17=Sonata IX in E Major - Preludio - Adagio
TTITLE18=Sonata IX in E Major - Allegro
TTITLE19=Sonata IX in E Major - Adagio
TTITLE20=Sonata IX in E Major - Vivace
TTITLE21=Sonata IX in E Major - Gavotta - Allegro
TTITLE22=Sonata XII in D Minor - La Follia
EXTD=YEAR: 2002
EXTT0=
EXTT1=
EXTT2=
EXTT3=
EXTT4=
EXTT5=
EXTT6=
EXTT7=
EXTT8=
EXTT9=
EXTT10=
EXTT11=
EXTT12=
EXTT13=
EXTT14=
EXTT15=
EXTT16=
EXTT17=
EXTT18=
EXTT19=
EXTT20=
EXTT21=
EXTT22=
PLAYORDER=
